<!-- Generator: Adobe Illustrator 22.1.0, SVG Export Plug-In  -->
<svg version="1.1"
	 xmlns="http://www.w3.org/2000/svg" xmlns:xlink="http://www.w3.org/1999/xlink" xmlns:a="http://ns.adobe.com/AdobeSVGViewerExtensions/3.0/"
	 x="0px" y="0px" width="545px" height="545px" viewBox="0 0 545 545" style="enable-background:new 0 0 545 545;"
	 xml:space="preserve">
<style type="text/css">
	.st0{fill:#4D4D4D;stroke:#E6E6E6;stroke-width:45;stroke-miterlimit:10;}
	.st1{fill:none;}
	.st2{fill-rule:evenodd;clip-rule:evenodd;fill:#F2F2F2;}
	.st3{font-family:'Constantia';}
	.st4{font-size:258px;}
</style>
<defs>
</defs>
<circle class="st0" cx="272.5" cy="272.5" r="250"/>
<g>
	<rect x="183.553" y="200.237" class="st1" width="177.895" height="190.526"/>
	<path d="M247.241,351.448c0,5.039,0.02,9.574,0.063,13.605c0.042,4.031,0.104,7.685,0.189,10.96
		c0.083,2.604,1.175,4.242,3.275,4.913l13.983,4.157l0.378,5.417c-9.995-0.252-19.989-0.378-29.982-0.378
		c-10.163,0-20.577,0.126-31.242,0.378l-0.504-5.417l15.495-4.661c2.099-0.587,3.232-1.89,3.401-3.905
		c0.083-3.358,0.146-7.117,0.189-11.275c0.041-4.156,0.063-8.755,0.063-13.794V249.281c0-4.283-0.021-8.145-0.063-11.59
		c-0.044-3.443-0.106-6.551-0.189-9.322c-0.085-2.183-1.093-3.61-3.023-4.283l-15.621-4.913l-0.252-5.417
		c10.834,0.336,21.417,0.504,31.751,0.504c2.035,0,4.624-0.063,7.766-0.189c3.14-0.126,6.958-0.271,11.458-0.441
		c4.582-0.167,8.4-0.293,11.456-0.378c3.055-0.083,5.474-0.126,7.257-0.126c19.35,0,33.862,3.612,43.539,10.834
		c9.675,7.224,14.513,17.763,14.513,31.62c0,12.515-3.32,22.656-9.962,30.423c-6.642,7.77-16.771,13.754-30.392,17.952
		c5.361,8.063,10.3,15.854,14.812,23.369c4.512,7.517,8.706,14.404,12.58,20.66c3.874,6.257,7.421,11.778,10.646,16.565
		c3.224,4.787,6.222,8.566,8.993,11.338c1.427,1.429,2.854,2.667,4.283,3.716c1.427,1.052,2.917,1.912,4.472,2.583
		c1.554,0.673,3.191,1.26,4.914,1.764c1.72,0.504,3.631,1.008,5.731,1.512l0.378,5.543c-6.047,0.756-11.129,1.134-15.243,1.134
		c-3.444,0-6.472-0.085-9.082-0.252c-2.612-0.169-4.938-0.504-6.982-1.008c-2.043-0.504-3.895-1.153-5.557-1.953
		c-1.661-0.797-3.299-1.826-4.915-3.086c-3.491-2.603-6.919-6.361-10.28-11.275c-3.362-4.912-6.854-10.476-10.472-16.691
		c-3.618-6.214-7.386-12.828-11.303-19.842c-3.917-7.011-8.045-13.877-12.385-20.597c-1.278-2.016-2.364-3.61-3.258-4.787
		c-0.894-1.175-1.874-2.099-2.938-2.771c-1.064-0.671-2.299-1.134-3.704-1.386s-3.214-0.419-5.427-0.504l-8.811-0.252V351.448z
		 M247.241,298.286c5.122,0.252,9.867,0.378,14.235,0.378c14.528,0,25.174-3.086,31.935-9.26
		c6.76-6.173,10.142-15.852,10.142-29.037c0-12.765-3.234-22.087-9.7-27.967c-6.468-5.877-16.588-8.818-30.36-8.818
		c-2.353,0-4.872,0.084-7.559,0.252c-2.688,0.169-5.586,0.421-8.692,0.756V298.286z"/>
</g>
<path class="st2" d="M347.904,124.038c-3.877,0-7.02,4.502-7.02,10.056c0,0.484,0.033,0.955,0.079,1.42l-33.114,6.269l-4.679-40.361
	c3.352-0.759,5.918-4.904,5.918-9.92c0-5.554-3.143-10.056-7.019-10.056c-3.877,0-7.02,4.502-7.02,10.056
	c0,2.632,0.713,5.021,1.867,6.813l-27.056,35.777L242.8,98.317c1.157-1.793,1.868-4.181,1.868-6.813
	c0-5.554-3.143-10.056-7.019-10.056c-3.877,0-7.02,4.502-7.02,10.056c0,5.015,2.566,9.161,5.918,9.92l-4.681,40.361l-34.387-6.529
	c0.07-0.57,0.114-1.153,0.114-1.752c0-5.553-3.143-10.056-7.019-10.056c-3.877,0-7.02,4.502-7.02,10.056
	c0,5.554,3.143,10.056,7.02,10.056c1.977,0,3.76-1.176,5.036-3.061l32.129,60.44c0,0,37.99-29.577,84.24,0l31.383-59.184
	c1.224,1.492,2.808,2.397,4.543,2.397c3.876,0,7.019-4.502,7.019-10.056C354.924,128.54,351.781,124.038,347.904,124.038z"/>
</svg>